# MagicaVoxel @ Ephtracy

# group
g head

# material
mtllib head.mtl
usemtl palette

# normals
vn -1 0 0
vn 1 0 0
vn 0 0 1
vn 0 0 -1
vn 0 -1 0
vn 0 1 0

# texcoords
vt 0.0214844 0.5
vt 0.0605469 0.5
vt 0.919922 0.5
vt 0.931641 0.5
vt 0.994141 0.5

# verts
v -6 5 1
v -6 5 -5
v -6 6 5
v -6 6 4
v -6 6 3
v -6 6 1
v -6 7 4
v -6 7 3
v -6 10 5
v -6 10 4
v -6 10 -4
v -6 10 -5
v -6 11 4
v -6 11 -4
v -5 1 3
v -5 1 -4
v -5 4 -4
v -5 4 -5
v -5 5 1
v -5 5 -4
v -5 5 -5
v -5 6 3
v -5 6 1
v -5 10 5
v -5 10 4
v -5 10 -4
v -5 10 -5
v -5 11 5
v -5 11 4
v -5 11 -4
v -5 11 -5
v -5 12 4
v -5 12 -4
v -4 0 3
v -4 0 -4
v -4 1 4
v -4 1 3
v -4 1 -4
v -4 4 -5
v -4 4 -6
v -4 6 4
v -4 7 4
v -4 7 3
v -4 10 -5
v -4 10 -6
v -3 0 4
v -3 0 3
v -3 1 4
v -3 1 3
v -3 12 2
v -3 12 -2
v -3 13 2
v -3 13 -2
v 3 8 5
v 3 8 4
v 3 9 5
v 3 9 4
v 4 7 5
v 4 7 4
v 4 8 5
v 4 8 4
v -4 6 5
v -4 6 4
v -4 8 5
v -4 8 4
v -2 8 5
v -2 8 4
v -2 9 5
v -2 9 4
v 3 0 4
v 3 0 3
v 3 1 4
v 3 1 3
v 3 12 2
v 3 12 -2
v 3 13 2
v 3 13 -2
v 4 0 3
v 4 0 -4
v 4 1 4
v 4 1 3
v 4 1 -4
v 4 4 -5
v 4 4 -6
v 4 7 4
v 4 7 3
v 4 10 -5
v 4 10 -6
v 5 1 3
v 5 1 -4
v 5 4 -4
v 5 4 -5
v 5 5 1
v 5 5 -4
v 5 5 -5
v 5 6 3
v 5 6 1
v 5 10 5
v 5 10 4
v 5 10 -4
v 5 10 -5
v 5 11 5
v 5 11 4
v 5 11 -4
v 5 11 -5
v 5 12 4
v 5 12 -4
v 6 5 1
v 6 5 -5
v 6 6 3
v 6 6 1
v 6 7 5
v 6 7 3
v 6 10 5
v 6 10 4
v 6 10 -4
v 6 10 -5
v 6 11 4
v 6 11 -4
v -6 6 5
v -6 10 5
v -5 10 5
v -5 11 5
v -4 6 5
v -4 8 5
v -2 8 5
v -2 9 5
v 3 8 5
v 3 9 5
v 4 7 5
v 4 8 5
v 5 10 5
v 5 11 5
v 6 7 5
v 6 10 5
v -6 10 4
v -6 11 4
v -5 10 4
v -5 11 4
v -5 12 4
v -4 1 4
v -4 6 4
v -4 8 4
v -3 0 4
v -3 1 4
v -3 3 4
v -3 4 4
v -3 5 4
v -3 6 4
v -2 3 4
v -2 4 4
v -2 5 4
v -2 6 4
v -2 8 4
v -2 9 4
v 2 3 4
v 2 4 4
v 2 5 4
v 2 6 4
v 3 0 4
v 3 1 4
v 3 3 4
v 3 4 4
v 3 5 4
v 3 6 4
v 3 8 4
v 3 9 4
v 4 1 4
v 4 7 4
v 4 8 4
v 5 10 4
v 5 11 4
v 5 12 4
v 6 10 4
v 6 11 4
v -6 6 3
v -6 7 3
v -5 1 3
v -5 6 3
v -5 7 3
v -4 0 3
v -4 1 3
v -4 7 3
v -3 0 3
v -3 1 3
v 3 0 3
v 3 1 3
v 4 0 3
v 4 1 3
v 4 7 3
v 5 1 3
v 5 6 3
v 5 7 3
v 6 6 3
v 6 7 3
v -3 12 2
v -3 13 2
v 3 12 2
v 3 13 2
v -6 5 1
v -6 6 1
v -5 5 1
v -5 6 1
v 5 5 1
v 5 6 1
v 6 5 1
v 6 6 1
v -6 6 4
v -6 7 4
v -4 6 4
v -4 7 4
v -3 12 -2
v -3 13 -2
v 3 12 -2
v 3 13 -2
v -6 10 -4
v -6 11 -4
v -5 1 -4
v -5 4 -4
v -5 10 -4
v -5 11 -4
v -5 12 -4
v -4 0 -4
v -4 1 -4
v 4 0 -4
v 4 1 -4
v 5 1 -4
v 5 4 -4
v 5 10 -4
v 5 11 -4
v 5 12 -4
v 6 10 -4
v 6 11 -4
v -6 5 -5
v -6 10 -5
v -5 4 -5
v -5 5 -5
v -5 10 -5
v -5 11 -5
v -4 4 -5
v -4 10 -5
v 4 4 -5
v 4 10 -5
v 5 4 -5
v 5 5 -5
v 5 10 -5
v 5 11 -5
v 6 5 -5
v 6 10 -5
v -4 4 -6
v -4 10 -6
v 4 4 -6
v 4 10 -6
v -3 0 4
v 3 0 4
v -4 0 3
v -3 0 3
v 3 0 3
v 4 0 3
v -4 0 -4
v 4 0 -4
v -4 1 4
v -3 1 4
v 3 1 4
v 4 1 4
v -5 1 3
v -4 1 3
v -3 1 3
v 3 1 3
v 4 1 3
v 5 1 3
v -5 1 -4
v -4 1 -4
v 4 1 -4
v 5 1 -4
v -5 4 -4
v 5 4 -4
v -5 4 -5
v -4 4 -5
v 4 4 -5
v 5 4 -5
v -4 4 -6
v 4 4 -6
v -6 5 1
v -5 5 1
v 5 5 1
v 6 5 1
v -5 5 -4
v 5 5 -4
v -6 5 -5
v -5 5 -5
v 5 5 -5
v 6 5 -5
v -6 6 5
v -4 6 5
v -6 6 4
v -4 6 4
v -6 6 3
v -5 6 3
v 5 6 3
v 6 6 3
v -6 6 1
v -5 6 1
v 5 6 1
v 6 6 1
v 4 7 5
v 6 7 5
v -6 7 4
v -4 7 4
v 4 7 4
v -6 7 3
v -5 7 3
v -4 7 3
v 4 7 3
v 5 7 3
v 6 7 3
v -4 8 5
v -2 8 5
v 3 8 5
v 4 8 5
v -4 8 4
v -2 8 4
v 3 8 4
v 4 8 4
v -2 9 5
v 3 9 5
v -2 9 4
v 3 9 4
v -6 10 5
v -5 10 5
v 5 10 5
v 6 10 5
v -6 10 4
v -5 10 4
v 5 10 4
v 6 10 4
v -6 10 -4
v -5 10 -4
v 5 10 -4
v 6 10 -4
v -6 10 -5
v -5 10 -5
v -4 10 -5
v 4 10 -5
v 5 10 -5
v 6 10 -5
v -4 10 -6
v 4 10 -6
v -5 11 5
v 5 11 5
v -6 11 4
v -5 11 4
v 5 11 4
v 6 11 4
v -6 11 -4
v -5 11 -4
v 5 11 -4
v 6 11 -4
v -5 11 -5
v 5 11 -5
v -5 12 4
v 5 12 4
v -3 12 2
v 3 12 2
v -3 12 -2
v 3 12 -2
v -5 12 -4
v 5 12 -4
v -3 13 2
v 3 13 2
v -3 13 -2
v 3 13 -2

# faces
f 6/1/1 2/1/1 1/1/1
f 7/1/1 4/1/1 3/1/1
f 8/1/1 6/1/1 5/1/1
f 9/1/1 7/1/1 3/1/1
f 9/1/1 8/1/1 7/1/1
f 10/1/1 8/1/1 9/1/1
f 11/1/1 6/1/1 8/1/1
f 11/1/1 8/1/1 10/1/1
f 11/1/1 2/1/1 6/1/1
f 12/1/1 2/1/1 11/1/1
f 13/1/1 11/1/1 10/1/1
f 14/1/1 11/1/1 13/1/1
f 17/2/1 16/2/1 15/2/1
f 19/2/1 17/2/1 15/2/1
f 20/1/1 18/1/1 17/1/1
f 20/2/1 17/2/1 19/2/1
f 21/1/1 18/1/1 20/1/1
f 22/2/1 19/2/1 15/2/1
f 23/2/1 19/2/1 22/2/1
f 28/1/1 25/1/1 24/1/1
f 29/1/1 25/1/1 28/1/1
f 30/1/1 27/1/1 26/1/1
f 31/1/1 27/1/1 30/1/1
f 32/1/1 30/1/1 29/1/1
f 33/1/1 30/1/1 32/1/1
f 37/2/1 35/2/1 34/2/1
f 38/2/1 35/2/1 37/2/1
f 41/2/1 37/2/1 36/2/1
f 42/2/1 37/2/1 41/2/1
f 43/2/1 37/2/1 42/2/1
f 44/1/1 40/1/1 39/1/1
f 45/1/1 40/1/1 44/1/1
f 48/2/1 47/2/1 46/2/1
f 49/2/1 47/2/1 48/2/1
f 52/1/1 51/1/1 50/1/1
f 53/1/1 51/1/1 52/1/1
f 56/1/1 55/1/1 54/1/1
f 57/1/1 55/1/1 56/1/1
f 60/1/1 59/1/1 58/1/1
f 61/1/1 59/1/1 60/1/1
f 62/1/2 63/1/2 64/1/2
f 64/1/2 63/1/2 65/1/2
f 66/1/2 67/1/2 68/1/2
f 68/1/2 67/1/2 69/1/2
f 70/2/2 71/2/2 72/2/2
f 72/2/2 71/2/2 73/2/2
f 74/1/2 75/1/2 76/1/2
f 76/1/2 75/1/2 77/1/2
f 78/2/2 79/2/2 81/2/2
f 81/2/2 79/2/2 82/2/2
f 80/2/2 81/2/2 85/2/2
f 85/2/2 81/2/2 86/2/2
f 83/1/2 84/1/2 87/1/2
f 87/1/2 84/1/2 88/1/2
f 89/2/2 90/2/2 91/2/2
f 89/2/2 91/2/2 93/2/2
f 91/1/2 92/1/2 94/1/2
f 93/2/2 91/2/2 94/2/2
f 94/1/2 92/1/2 95/1/2
f 89/2/2 93/2/2 96/2/2
f 96/2/2 93/2/2 97/2/2
f 98/1/2 99/1/2 102/1/2
f 102/1/2 99/1/2 103/1/2
f 100/1/2 101/1/2 104/1/2
f 104/1/2 101/1/2 105/1/2
f 103/1/2 104/1/2 106/1/2
f 106/1/2 104/1/2 107/1/2
f 108/1/2 109/1/2 111/1/2
f 110/1/2 111/1/2 113/1/2
f 112/1/2 113/1/2 114/1/2
f 114/1/2 113/1/2 115/1/2
f 111/1/2 109/1/2 116/1/2
f 115/1/2 113/1/2 116/1/2
f 113/1/2 111/1/2 116/1/2
f 116/1/2 109/1/2 117/1/2
f 115/1/2 116/1/2 118/1/2
f 118/1/2 116/1/2 119/1/2
f 122/1/3 121/1/3 120/1/3
f 124/1/3 122/1/3 120/1/3
f 124/1/3 123/1/3 122/1/3
f 125/1/3 123/1/3 124/1/3
f 126/1/3 123/1/3 125/1/3
f 127/1/3 123/1/3 126/1/3
f 129/1/3 123/1/3 127/1/3
f 131/1/3 129/1/3 128/1/3
f 132/1/3 123/1/3 129/1/3
f 132/1/3 131/1/3 130/1/3
f 132/1/3 129/1/3 131/1/3
f 133/1/3 123/1/3 132/1/3
f 134/1/3 132/1/3 130/1/3
f 135/1/3 132/1/3 134/1/3
f 138/1/3 137/1/3 136/1/3
f 139/1/3 137/1/3 138/1/3
f 145/2/3 142/2/3 141/2/3
f 145/2/3 143/2/3 142/2/3
f 146/2/3 143/2/3 145/2/3
f 147/2/3 143/2/3 146/2/3
f 148/2/3 143/2/3 147/2/3
f 149/2/3 143/2/3 148/2/3
f 150/2/3 145/2/3 144/2/3
f 150/2/3 146/2/3 145/2/3
f 150/3/3 147/3/3 146/3/3
f 151/4/3 148/4/3 147/4/3
f 151/3/3 147/3/3 150/3/3
f 152/5/3 149/5/3 148/5/3
f 152/4/3 148/4/3 151/4/3
f 153/2/3 143/2/3 149/2/3
f 153/5/3 149/5/3 152/5/3
f 154/2/3 143/2/3 153/2/3
f 156/2/3 152/2/3 151/2/3
f 156/2/3 155/2/3 154/2/3
f 156/2/3 154/2/3 153/2/3
f 156/2/3 153/2/3 152/2/3
f 156/2/3 150/2/3 144/2/3
f 156/2/3 151/2/3 150/2/3
f 157/2/3 155/2/3 156/2/3
f 158/2/3 155/2/3 157/2/3
f 159/2/3 155/2/3 158/2/3
f 160/2/3 156/2/3 144/2/3
f 161/2/3 156/2/3 160/2/3
f 162/3/3 157/3/3 156/3/3
f 162/2/3 156/2/3 161/2/3
f 163/4/3 158/4/3 157/4/3
f 163/3/3 157/3/3 162/3/3
f 164/5/3 159/5/3 158/5/3
f 164/4/3 158/4/3 163/4/3
f 165/2/3 155/2/3 159/2/3
f 165/5/3 159/5/3 164/5/3
f 166/2/3 155/2/3 165/2/3
f 167/2/3 155/2/3 166/2/3
f 168/2/3 164/2/3 163/2/3
f 168/2/3 166/2/3 165/2/3
f 168/2/3 165/2/3 164/2/3
f 168/2/3 162/2/3 161/2/3
f 168/2/3 163/2/3 162/2/3
f 169/2/3 166/2/3 168/2/3
f 170/2/3 166/2/3 169/2/3
f 172/1/3 140/1/3 139/1/3
f 173/1/3 140/1/3 172/1/3
f 174/1/3 172/1/3 171/1/3
f 175/1/3 172/1/3 174/1/3
f 179/1/3 177/1/3 176/1/3
f 180/1/3 177/1/3 179/1/3
f 182/2/3 179/2/3 178/2/3
f 182/2/3 180/2/3 179/2/3
f 183/2/3 180/2/3 182/2/3
f 184/2/3 182/2/3 181/2/3
f 185/2/3 182/2/3 184/2/3
f 188/2/3 187/2/3 186/2/3
f 189/2/3 187/2/3 188/2/3
f 191/2/3 190/2/3 189/2/3
f 192/2/3 190/2/3 191/2/3
f 193/2/3 190/2/3 192/2/3
f 194/1/3 193/1/3 192/1/3
f 195/1/3 193/1/3 194/1/3
f 198/1/3 197/1/3 196/1/3
f 199/1/3 197/1/3 198/1/3
f 202/1/3 201/1/3 200/1/3
f 203/1/3 201/1/3 202/1/3
f 206/1/3 205/1/3 204/1/3
f 207/1/3 205/1/3 206/1/3
f 208/1/4 209/1/4 210/1/4
f 210/1/4 209/1/4 211/1/4
f 212/1/4 213/1/4 214/1/4
f 214/1/4 213/1/4 215/1/4
f 216/1/4 217/1/4 220/1/4
f 220/1/4 217/1/4 221/1/4
f 218/2/4 219/2/4 224/2/4
f 223/2/4 224/2/4 225/2/4
f 224/2/4 219/2/4 226/2/4
f 225/2/4 224/2/4 226/2/4
f 226/2/4 219/2/4 227/2/4
f 227/2/4 219/2/4 228/2/4
f 221/1/4 222/1/4 230/1/4
f 230/1/4 222/1/4 231/1/4
f 229/1/4 230/1/4 232/1/4
f 232/1/4 230/1/4 233/1/4
f 234/1/4 235/1/4 237/1/4
f 237/1/4 235/1/4 238/1/4
f 236/1/4 237/1/4 240/1/4
f 238/1/4 239/1/4 240/1/4
f 237/1/4 238/1/4 240/1/4
f 240/1/4 239/1/4 241/1/4
f 241/1/4 239/1/4 243/1/4
f 242/1/4 243/1/4 244/1/4
f 244/1/4 243/1/4 245/1/4
f 243/1/4 239/1/4 246/1/4
f 245/1/4 243/1/4 246/1/4
f 246/1/4 239/1/4 247/1/4
f 245/1/4 246/1/4 248/1/4
f 248/1/4 246/1/4 249/1/4
f 250/1/4 251/1/4 252/1/4
f 252/1/4 251/1/4 253/1/4
f 257/2/5 255/2/5 254/2/5
f 258/2/5 255/2/5 257/2/5
f 260/2/5 257/2/5 256/2/5
f 260/2/5 259/2/5 258/2/5
f 260/2/5 258/2/5 257/2/5
f 261/2/5 259/2/5 260/2/5
f 267/2/5 263/2/5 262/2/5
f 268/2/5 263/2/5 267/2/5
f 269/2/5 265/2/5 264/2/5
f 270/2/5 265/2/5 269/2/5
f 272/2/5 267/2/5 266/2/5
f 273/2/5 267/2/5 272/2/5
f 274/2/5 271/2/5 270/2/5
f 275/2/5 271/2/5 274/2/5
f 278/1/5 277/1/5 276/1/5
f 279/1/5 277/1/5 278/1/5
f 280/1/5 277/1/5 279/1/5
f 281/1/5 277/1/5 280/1/5
f 282/1/5 280/1/5 279/1/5
f 283/1/5 280/1/5 282/1/5
f 288/1/5 285/1/5 284/1/5
f 289/1/5 287/1/5 286/1/5
f 290/1/5 288/1/5 284/1/5
f 291/1/5 288/1/5 290/1/5
f 292/1/5 287/1/5 289/1/5
f 293/1/5 287/1/5 292/1/5
f 296/1/5 295/1/5 294/1/5
f 297/1/5 295/1/5 296/1/5
f 302/1/5 299/1/5 298/1/5
f 303/1/5 299/1/5 302/1/5
f 304/1/5 301/1/5 300/1/5
f 305/1/5 301/1/5 304/1/5
f 310/1/5 307/1/5 306/1/5
f 311/1/5 309/1/5 308/1/5
f 312/1/5 309/1/5 311/1/5
f 313/1/5 309/1/5 312/1/5
f 314/1/5 307/1/5 310/1/5
f 315/1/5 307/1/5 314/1/5
f 316/1/5 307/1/5 315/1/5
f 321/1/5 318/1/5 317/1/5
f 322/1/5 318/1/5 321/1/5
f 323/1/5 320/1/5 319/1/5
f 324/1/5 320/1/5 323/1/5
f 327/1/5 326/1/5 325/1/5
f 328/1/5 326/1/5 327/1/5
f 329/1/6 330/1/6 333/1/6
f 333/1/6 330/1/6 334/1/6
f 331/1/6 332/1/6 335/1/6
f 335/1/6 332/1/6 336/1/6
f 337/1/6 338/1/6 341/1/6
f 341/1/6 338/1/6 342/1/6
f 339/1/6 340/1/6 345/1/6
f 345/1/6 340/1/6 346/1/6
f 343/1/6 344/1/6 347/1/6
f 347/1/6 344/1/6 348/1/6
f 349/1/6 350/1/6 352/1/6
f 352/1/6 350/1/6 353/1/6
f 351/1/6 352/1/6 355/1/6
f 355/1/6 352/1/6 356/1/6
f 353/1/6 354/1/6 357/1/6
f 357/1/6 354/1/6 358/1/6
f 356/1/6 357/1/6 359/1/6
f 359/1/6 357/1/6 360/1/6
f 361/1/6 362/1/6 363/1/6
f 363/1/6 362/1/6 364/1/6
f 361/1/6 363/1/6 365/1/6
f 364/1/6 362/1/6 366/1/6
f 361/1/6 365/1/6 367/1/6
f 365/1/6 366/1/6 367/1/6
f 366/1/6 362/1/6 368/1/6
f 367/1/6 366/1/6 368/1/6
f 369/1/6 370/1/6 371/1/6
f 371/1/6 370/1/6 372/1/6
